<?xml version="1.0" encoding="UTF-8" standalone="no"?><!DOCTYPE svg PUBLIC "-//W3C//DTD SVG 1.1//EN" "http://www.w3.org/Graphics/SVG/1.1/DTD/svg11.dtd"><svg width="100%" height="100%" viewBox="0 0 47 59" version="1.1" xmlns="http://www.w3.org/2000/svg" xmlns:xlink="http://www.w3.org/1999/xlink" xml:space="preserve" xmlns:serif="http://www.serif.com/" style="fill-rule:evenodd;clip-rule:evenodd;stroke-linejoin:round;stroke-miterlimit:2;"><path d="M47,59l-47,0l0,-59l47,0l-14.99,0l14.99,14.405l0,44.595Zm-19.925,-22.75l0,3.85l-7.15,6.9l0,-10.75l7.15,0Zm-7.15,-4.9l0,-19.35l7.15,0l0,19.35l-7.15,0Z"/><path d="M47,59l-47,0l0,-59l47,0l-14.99,0l14.99,14.405l0,44.595Zm-19.925,-22.75l0,3.85l-7.15,6.9l0,-10.75l7.15,0Zm-7.15,-4.9l0,-19.35l7.15,0l0,19.35l-7.15,0Z" style="fill:#333;"/></svg>